# xmcd CD database file
#
# Track frame offsets:
#	150
#	15410
#	26048
#	42655
#	52767
#	67537
#	78324
#	97865
#	108911
#	120876
#	134199
#	145723
#	156848
#	172222
#	187178
#	199178
#	214481
#	232779
#	243442
#	254076
#
# Disc length: 3568 seconds
#
# Revision: 2
# Processed by: cddbd v1.4b41PL1 Copyright (c) Steve Scherf et al.
# Submitted via: Feurio! 1.52 - http://www.feurio.com
#
DISCID=140dee14
DTITLE=Odetta - Livin' with the Blues
DYEAR=1900
DGENRE=
TTITLE0=Make me a pallet on your floor
TTITLE1=Mean and evil
TTITLE2=Livin' with the blues
TTITLE3=Nobody knows you when you're down and out
TTITLE4=House of the rising sun
TTITLE5=Empty pocket blues
TTITLE6=Fare-thee-well
TTITLE7=Rosie
TTITLE8=Special delivery blues
TTITLE9=Down on me
TTITLE10=Another man done gone
TTITLE11=Jumpin' Judy
TTITLE12=Timber
TTITLE13=Rambler gambler
TTITLE14=Sail away ladies
TTITLE15=Midnight special
TTITLE16=Rambling round your city
TTITLE17=Bald headed woman
TTITLE18=Ain't no grave
TTITLE19=Roll on, Buddy
EXTD=
EXTT0=
EXTT1=
EXTT2=
EXTT3=
EXTT4=
EXTT5=
EXTT6=
EXTT7=
EXTT8=
EXTT9=
EXTT10=
EXTT11=
EXTT12=
EXTT13=
EXTT14=
EXTT15=
EXTT16=
EXTT17=
EXTT18=
EXTT19=
PLAYORDER=
